# xmcd CD database file
#
# Track frame offsets:
#	150
#	30684
#	57972
#	85971
#	117683
#	156424
#	190387
#	216560
#	225966
#	248991
#	276962
#
# Disc length: 4062 seconds
#
# Revision: 1
# Processed by: cddbd v1.5.1PL0 Copyright (c) Steve Scherf et al.
# Submitted via: CDex 1.51
#
DISCID=a40fdc0b
DTITLE=布川俊樹プロジェクト - ジャズで聴く　ウルトラマン
DYEAR=2001
DGENRE=Jazz
TTITLE0=ウルトラマンの歌
TTITLE1=ウルトラセフンの歌
TTITLE2=特捜隊の歌
TTITLE3=ウルトラマンレオ
TTITLE4=ウルトラＱのテーマ
TTITLE5=ＭＡＴチームの歌
TTITLE6=進め！ウルトラマン
TTITLE7=帰ってきたウルトラマン
TTITLE8=ウルトラマンの歌（リフライス）
TTITLE9=ウルトラセブンの歌（別テイク）
TTITLE10=特捜隊の歌（別テイク）
EXTD=YEAR: 2001
EXTT0=
EXTT1=
EXTT2=
EXTT3=
EXTT4=
EXTT5=
EXTT6=
EXTT7=
EXTT8=
EXTT9=
EXTT10=
PLAYORDER=
